<?xml version="1.0" standalone="no"?>
<!DOCTYPE svg PUBLIC "-//W3C//DTD SVG 20010904//EN"
 "http://www.w3.org/TR/2001/REC-SVG-20010904/DTD/svg10.dtd">
<svg version="1.0" xmlns="http://www.w3.org/2000/svg"
 width="188.000000pt" height="188.000000pt" viewBox="0 0 188.000000 188.000000"
 preserveAspectRatio="xMidYMid meet">
<metadata>
Created by potrace 1.11, written by Peter Selinger 2001-2013
</metadata>
<g transform="translate(0.000000,188.000000) scale(0.100000,-0.100000)"
fill="#000000" stroke="none">
<path d="M585 1858 c-115 -42 -159 -161 -96 -260 22 -34 40 -50 74 -63 l45
-17 61 -146 c34 -81 61 -152 61 -158 0 -6 -9 -21 -20 -34 -17 -20 -23 -21 -52
-11 -70 24 -108 45 -108 59 0 29 -43 83 -84 107 -108 63 -241 -7 -254 -134
-12 -126 126 -222 240 -168 36 17 38 17 102 -9 65 -26 66 -27 66 -64 0 -37 -1
-38 -62 -63 -35 -14 -103 -42 -152 -63 l-89 -36 -53 18 c-75 25 -134 10 -186
-47 -64 -70 -64 -161 0 -228 87 -91 232 -66 281 50 19 44 24 47 113 84 51 21
117 49 146 62 66 29 78 29 98 -2 15 -23 15 -28 -2 -77 -23 -67 -30 -76 -73
-94 -48 -20 -70 -42 -92 -89 -27 -58 -24 -104 9 -154 42 -63 65 -75 141 -74
110 2 142 23 166 109 16 57 16 62 -2 115 l-19 54 28 62 c25 56 31 63 57 63 16
0 33 -6 39 -12 23 -29 123 -292 119 -312 -3 -12 -10 -40 -16 -64 -15 -56 -7
-82 37 -130 70 -74 119 -92 182 -66 48 20 108 88 116 131 14 73 -32 155 -106
188 -44 20 -50 30 -116 195 -19 47 -40 95 -46 108 -10 20 -8 26 15 49 l26 26
62 -24 c49 -19 65 -30 75 -55 20 -47 64 -95 101 -110 115 -48 235 32 235 156
0 127 -124 208 -239 157 -39 -18 -39 -18 -106 12 -62 28 -67 33 -67 61 0 35 7
38 212 121 97 40 98 40 143 24 68 -22 105 -19 159 15 130 83 89 282 -64 310
-82 15 -155 -26 -185 -103 -16 -43 -17 -43 -165 -105 -82 -34 -153 -62 -158
-62 -5 0 -19 11 -32 25 -21 23 -22 26 -8 57 8 18 20 47 27 63 8 21 26 37 64
55 65 31 97 81 97 156 0 92 -76 168 -170 168 -121 0 -203 -125 -156 -239 16
-37 16 -41 -10 -107 l-26 -69 -36 3 c-36 3 -37 4 -77 103 -23 55 -49 116 -57
136 -28 64 -29 77 -14 108 9 17 16 52 16 79 0 107 -119 195 -215 160z"/>
<path d="M763 3 c9 -2 23 -2 30 0 6 3 -1 5 -18 5 -16 0 -22 -2 -12 -5z"/>
</g>
</svg>
